<svg id="behance-network" xmlns="http://www.w3.org/2000/svg" width="22.348" height="13.97" viewBox="0 0 22.348 13.97">
  <path id="Path_306" data-name="Path 306" d="M11.514,14.229A3.305,3.305,0,0,0,9,10.759,2.935,2.935,0,0,0,10.881,7.9c0-2.731-2.041-3.4-4.4-3.4H0V18.21H6.666C9.166,18.21,11.514,17.015,11.514,14.229ZM3.023,6.84H5.86c1.091,0,2.072.305,2.072,1.566,0,1.164-.764,1.633-1.844,1.633H3.023Zm0,9.041V12.106H6.317c1.331,0,2.173.553,2.173,1.958,0,1.385-1,1.818-2.235,1.818Z" transform="translate(0 -4.5)" fill="#fff"/>
  <path id="Path_307" data-name="Path 307" d="M18.42,18.728a4.438,4.438,0,0,0,4.66-3.339H20.666a2.265,2.265,0,0,1-2.162,1.3,2.248,2.248,0,0,1-2.445-2.527h7.183c.227-3.183-1.546-5.9-4.824-5.9a5,5,0,0,0-5.1,5.254A4.844,4.844,0,0,0,18.42,18.728Zm-.086-8.406a2.035,2.035,0,0,1,2.18,2.121H16.064A2.136,2.136,0,0,1,18.334,10.322Z" transform="translate(-0.915 -4.758)" fill="#fff"/>
  <path id="Path_308" data-name="Path 308" d="M15.667,5.273h5.577v1.35H15.667Z" transform="translate(-1.076 -4.553)" fill="#fff"/>
</svg>
