<svg xmlns="http://www.w3.org/2000/svg" width="23.045" height="23.045" viewBox="0 0 23.045 23.045">
  <path id="dribbble_1_" data-name="dribbble (1)" d="M23,12.523c.028-.331.043-.664.043-1A11.523,11.523,0,0,0,3.374,3.375a11.523,11.523,0,0,0,16.3,16.3A11.436,11.436,0,0,0,22.995,12.6.654.654,0,0,0,23,12.523ZM21.693,11.6a15.769,15.769,0,0,0-7.172-.322q-.223-.519-.459-1.033-.318-.691-.66-1.371a27.782,27.782,0,0,0,6.113-3.634,10.122,10.122,0,0,1,2.178,6.284c0,.025,0,.05,0,.076ZM18.609,4.234a26.475,26.475,0,0,1-5.837,3.43A44.468,44.468,0,0,0,8.893,1.7a10.161,10.161,0,0,1,9.716,2.538ZM7.545,2.161A42.971,42.971,0,0,1,11.5,8.167,26.587,26.587,0,0,1,2.337,9.8c-.28,0-.56,0-.839-.013A10.206,10.206,0,0,1,7.545,2.161Zm-6.2,9.363c0-.13,0-.259.008-.388.326.011.653.018.979.018A27.821,27.821,0,0,0,11.9,9.47l.239-.089q.55,1.09,1.037,2.209a15.708,15.708,0,0,0-9.111,6.847,10.133,10.133,0,0,1-2.719-6.914Zm3.723,7.861A14.359,14.359,0,0,1,13.7,12.847a42.691,42.691,0,0,1,2.28,7.816A10.155,10.155,0,0,1,5.073,19.384Zm12.146.562a44.091,44.091,0,0,0-2.174-7.39,14.408,14.408,0,0,1,6.545.42,10.186,10.186,0,0,1-4.371,6.971Zm0,0" transform="translate(0.001 -0.001)" fill="#fff"/>
</svg>
