<svg id="instagram-sketched_2_" data-name="instagram-sketched (2)" xmlns="http://www.w3.org/2000/svg" width="20.5" height="20.504" viewBox="0 0 20.5 20.504">
  <path id="Path_310" data-name="Path 310" d="M20.9,6.028a7.492,7.492,0,0,0-.477-2.487,5.252,5.252,0,0,0-3-3A7.511,7.511,0,0,0,14.932.064C13.835.012,13.486,0,10.7,0S7.57.012,6.477.06A7.494,7.494,0,0,0,3.989.537,5,5,0,0,0,2.171,1.722,5.048,5.048,0,0,0,.989,3.537,7.512,7.512,0,0,0,.513,6.024C.461,7.122.449,7.47.449,10.254s.012,3.132.06,4.226a7.492,7.492,0,0,0,.477,2.487,5.251,5.251,0,0,0,3,3,7.512,7.512,0,0,0,2.487.477c1.093.048,1.442.06,4.226.06s3.132-.012,4.226-.06a7.49,7.49,0,0,0,2.487-.477,5.244,5.244,0,0,0,3-3,7.517,7.517,0,0,0,.477-2.487c.048-1.094.06-1.442.06-4.226s0-3.132-.052-4.226ZM19.05,14.4a5.62,5.62,0,0,1-.353,1.9,3.4,3.4,0,0,1-1.947,1.947,5.64,5.64,0,0,1-1.9.352c-1.081.048-1.406.06-4.142.06s-3.064-.012-4.142-.06a5.617,5.617,0,0,1-1.9-.352,3.155,3.155,0,0,1-1.178-.765,3.188,3.188,0,0,1-.765-1.178,5.641,5.641,0,0,1-.352-1.9c-.048-1.081-.06-1.406-.06-4.142s.012-3.064.06-4.142a5.617,5.617,0,0,1,.352-1.9A3.116,3.116,0,0,1,3.489,3.04a3.183,3.183,0,0,1,1.178-.765,5.644,5.644,0,0,1,1.9-.353c1.081-.048,1.406-.06,4.142-.06s3.064.012,4.142.06a5.62,5.62,0,0,1,1.9.353,3.153,3.153,0,0,1,1.178.765A3.187,3.187,0,0,1,18.7,4.218a5.643,5.643,0,0,1,.353,1.9c.048,1.081.06,1.406.06,4.142s-.012,3.056-.06,4.138Zm0,0" transform="translate(-0.449 0)" fill="#fff"/>
  <path id="Path_311" data-name="Path 311" d="M130.216,124.5a5.267,5.267,0,1,0,5.267,5.267A5.268,5.268,0,0,0,130.216,124.5Zm0,8.684a3.417,3.417,0,1,1,3.417-3.417A3.417,3.417,0,0,1,130.216,133.184Zm0,0" transform="translate(-119.962 -119.513)" fill="#fff"/>
  <path id="Path_312" data-name="Path 312" d="M364.909,89.831a1.23,1.23,0,1,1-1.23-1.23A1.23,1.23,0,0,1,364.909,89.831Zm0,0" transform="translate(-347.95 -85.053)" fill="#fff"/>
</svg>
